<?xml version="1.0" encoding="utf-8"?>
<!-- Generator: Adobe Illustrator 21.1.0, SVG Export Plug-In . SVG Version: 6.00 Build 0)  -->
<svg version="1.1" id="Layer_1" xmlns="http://www.w3.org/2000/svg" xmlns:xlink="http://www.w3.org/1999/xlink" x="0px" y="0px"
	 viewBox="0 0 606.7 135" style="enable-background:new 0 0 606.7 135;" xml:space="preserve">
<style type="text/css">
	.st0{fill:#101B4E;}
	.st1{fill:#FFFFFF;}
</style>
<g>
	<rect class="st0" width="98.1" height="135"/>
	<g>
		<path class="st0" d="M407.9,85.5c0,4.2-0.3,5.4,4.3,5.4c0.6,0,1.7-0.1,1.7,0.8c0,0.7-0.5,0.8-1.1,0.8c-2.4,0-4.9-0.3-7.3-0.3
			c-2.5,0-5,0.3-7.5,0.3c-0.6,0-1.1-0.1-1.1-0.8c0-0.8,1-0.8,1.6-0.8c4.6,0,4.3-1.3,4.3-5.4v-27c0-4.1,0.3-5.4-4.3-5.4
			c-0.6,0-1.6,0-1.6-0.8c0-0.7,0.5-0.9,1.1-0.9c2.6,0,4.9,0.3,7.4,0.3c2.5,0,5-0.3,7.5-0.3c0.6,0,1.1,0.2,1.1,0.9
			c0,0.8-1.1,0.8-1.7,0.8c-4.6,0-4.3,1.2-4.3,5.4v8.5c0,2.5-0.1,2.5,2.3,2.5h18.4c2.1,0,2.3-0.2,2.3-2.5v-8.5c0-4.1,0.3-5.4-4.3-5.4
			c-0.6,0-1.6,0-1.6-0.8c0-0.7,0.5-0.9,1.1-0.9c2.5,0,4.9,0.3,7.4,0.3c2.6,0,5-0.3,7.5-0.3c0.6,0,1.1,0.2,1.1,0.9
			c0,0.8-1.1,0.8-1.7,0.8c-4.6,0-4.3,1.2-4.3,5.4v27c0,4.2-0.3,5.4,4.3,5.4c0.6,0,1.7-0.1,1.7,0.8c0,0.7-0.5,0.8-1.1,0.8
			c-2.6,0-4.9-0.3-7.4-0.3c-2.5,0-5,0.3-7.5,0.3c-0.6,0-1.1-0.1-1.1-0.8c0-0.8,1-0.8,1.6-0.8c4.6,0,4.3-1.3,4.3-5.4V73.8
			c0-2.5,0-2.5-2.3-2.5h-18.2c-2.2,0-2.5,0.1-2.5,2.5v11.7"/>
		<path class="st0" d="M485.9,71.8c0,4.9-1,9.3-4.1,13.3c-3.2,3.9-7.7,6.3-12.7,6.3c-5,0-9.6-2-12.8-5.8c-3.2-3.8-4.4-8.8-4.4-13.7
			c0-4.7,1.1-9.7,4.1-13.4c3.2-4,7.9-6.1,13-6.1c4.9,0,9.3,2.2,12.5,5.9C484.9,62.2,485.9,66.7,485.9,71.8 M446.2,71.8
			c0,11.9,11.1,21.3,22.9,21.3c12.5,0,22.9-8.7,22.9-21.3c0-12.7-10.3-21.3-22.9-21.3C457.3,50.4,446.2,59.8,446.2,71.8z"/>
		<path class="st0" d="M532.8,61.2c0-1.5,0.1-5.2-0.7-6.5c-0.8-1.4-2.5-1.5-3.9-1.5c-0.6,0-1.7,0.1-1.7-0.8c0-0.7,0.7-0.9,1.3-0.9
			c1.9,0,4,0.3,5.9,0.3c1.6,0,3.4-0.3,5.1-0.3c0.5,0,1.3,0.1,1.3,0.8c0,0.9-1.5,0.9-2.1,0.9c-3.8,0-3.3,2.5-3.4,5.5v20.4
			c0,4.2-0.1,7.4-3.6,10.4c-3.3,2.9-8,3.5-12.4,3.5c-3.9,0-9-0.6-12.3-3.1c-4-2.8-3.9-6.5-3.9-10.9V58.6c0-4.1,0.3-5.4-4.3-5.4
			c-0.6,0-1.6,0-1.6-0.8c0-0.7,0.4-0.9,1.1-0.9c2.5,0,4.9,0.3,7.4,0.3c2.6,0,5-0.3,7.5-0.3c0.6,0,1.1,0.2,1.1,0.9
			c0,0.8-1.1,0.8-1.7,0.8c-4.6,0-4.3,1.2-4.3,5.4v18.5c0,2.9-0.1,7.7,1.3,10.1c2,3.4,7,4.3,10.6,4.3c3.8,0,8-0.8,10.6-3.6
			c2.5-2.5,2.3-5.4,2.3-8.8V61.2"/>
		<path class="st0" d="M553.8,72.2c-4.8-2.1-9.5-4.8-9.5-10.6c0-6.8,6.2-11.1,12.7-11.1c2.6,0,6.4,0.5,8.8,1.4
			c1.2,0.4,1.1,1.2,1.2,2.5c0.1,1.7,0.2,3.4,0.3,5.1c0,0.4-0.3,0.8-0.7,0.8c-0.7,0-0.8-1-1-1.5c-1.4-4.5-3.4-6.9-8.6-6.9
			c-4.3,0-8.5,2.2-8.5,7c0,5.6,7.2,8,11.5,9.8c2.1,1,4.9,2.3,6.5,4.1c1.8,2.1,3.2,5,3.2,7.9c0,3.7-1.7,6.9-4.6,9.3
			c-3,2.5-6.7,3.4-10.5,3.4c-3.2,0-7.1-0.9-9.9-2.6c-1.1-0.7-0.9-2.5-0.9-3.7c0-1.7,0-3.4,0.2-5c0-0.5,0.2-1.3,1-1.3
			s0.8,1.6,0.9,2.1c0.7,5.6,3.7,9.2,9.6,9.2c4.9,0,9.8-3.4,9.8-8.6c0-5.2-3.6-7.8-8-9.8L553.8,72.2"/>
		<path class="st0" d="M585.1,66.1c0,3.1,0.6,3.1,3.3,3.1c1.9,0,5.4,0.1,8-0.3c1.6-0.2,1.9-2.7,2.3-4.5c0.1-0.4,0.2-1.1,0.8-1.1
			c0.3,0,0.7,0.1,0.7,0.6c-0.1,1.8-0.2,3.8-0.3,5.6c0.1,2.1,0.3,4.1,0.3,6.1c0,1-0.4,1.2-0.7,1.2c-0.6,0-0.8-0.7-0.8-1.1
			c-0.3-1.9-0.8-3.9-2.3-4.2c-2.6-0.6-5.9-0.6-8-0.6c-2.7,0-3.3,0-3.3,2.2v11.4c0,6,2.9,6.1,8.1,6.1c5.6,0,9.3-0.1,11.4-5.9
			c0.2-0.4,0.7-2.2,1.4-2.2c0.5,0,0.7,0.3,0.7,0.7c0,0.5-0.1,1-0.3,1.5l-1,6.9c-0.1,0.5-0.2,0.4-0.7,0.4H579c-1.3,0-2.8,0.3-4.1,0.3
			c-0.6,0-1.1-0.3-1.1-1c0-0.7,1-0.8,1.7-0.8c4.5,0,4.3-1.3,4.3-5.5V58.6c0-4.1,0.3-5.4-4.3-5.4c-0.7,0-1.7,0-1.7-0.8
			c0-0.6,0.5-1,1.1-1c4.1,0,8.3,0.3,12.4,0.3c5.6,0,11.1-0.3,16.7-0.3c1.2,0,0.9,1.5,0.9,2.5v5.6c0,0.4,0.1,1.4-0.6,1.4
			c-0.6,0-0.8-0.8-1-1.3l-1-1.8c-1-2-1.8-3.2-4.1-3.9c-2.1-0.6-5-0.6-7.2-0.6c-1,0-3.9,0-5,0.4c-1.2,0.4-1,1.9-1,3.1v9.5"/>
		<path class="st0" d="M148.4,91.9c-0.2,0.5-0.4,1.4-1.2,1.4c-0.6,0-0.9-1-1.1-1.4l-15.6-33.6c-0.4-0.8-1.4-3.4-2.1-4.1
			c-0.8-0.8-1.7-1-2.8-1c-0.7,0-1.6,0-1.6-1c0-0.5,0.5-0.8,1-0.8c2.1,0,4.2,0.3,6.5,0.3c2.1,0,4.2-0.3,6.3-0.3
			c0.6,0,1.2,0.1,1.2,0.9c0,0.9-0.9,0.8-1.6,0.8c-1,0-2.6,0.1-2.6,1.4c0,0.9,0.7,2.2,1,3.1L149,86l4.8-10.3c0.3-0.8,0.8-1.7,0.8-2.6
			c0-1-0.9-2.8-1.3-3.9l-5.5-11.8c-0.8-1.6-1.6-4.4-3.9-4.4c-0.8,0-1.9,0.3-1.9-0.8c0-0.6,0.5-0.9,1-0.9c2.1,0,4.4,0.3,6.4,0.3
			c2.1,0,4.2-0.3,6.3-0.3c0.5,0,1.1,0.3,1.1,1c0,0.9-1.4,0.8-2,0.8c-1,0-2.1,0.3-2.1,1.5c0,0.8,0.7,2.3,1,3.1l4.2,9.3l4.4-9.3
			c0.4-0.8,1.1-2.3,1.1-3.3c0-1-1.1-1.3-1.9-1.3c-0.7,0-1.8,0.1-1.8-0.8c0-0.7,0.6-1,1.2-1c1.6,0,3.2,0.3,4.8,0.3
			c1.6,0,3.2-0.3,4.8-0.3c0.5,0,0.8,0.3,0.8,0.8c0,1-1.2,0.9-1.9,0.9c-3.3,0-4.3,3-5.4,5.5l-3.1,6.3c-0.5,1.1-1.5,3.1-1.5,4.2
			c0,1,0.9,2.8,1.2,3.6l5.6,12.7l11.2-27.2c0.4-1,1-2.3,1-3.5c0-1.8-1.9-1.7-3.4-1.7c-0.6,0-1.1-0.1-1.1-0.9c0-0.6,0.5-0.8,1.1-0.8
			c1.6,0,3.4,0.3,4.9,0.3c1.6,0,3.2-0.3,4.8-0.3c0.5,0,1.1,0.3,1.1,1c0,0.8-1.1,0.8-1.7,0.8c-1,0-1.6,0.2-2.3,1
			c-1,1.2-1.7,3.1-2.3,4.5l-13.8,33.2c-0.2,0.4-0.3,1.2-1,1.2c-0.8,0-1.2-1.5-1.5-2L156,75.1L148.4,91.9"/>
		<path class="st0" d="M195.9,62.3c0.1-0.3,0.6-1.9,1.1-1.9c0.4,0,0.9,1.7,1,1.9l4.5,11.2c0,0.1,0.5,1.2,0.5,1.4
			c0,0.7-1.5,0.5-1.9,0.5h-7.6c-0.3,0-2.3,0.3-2.3-0.4c0-0.2,0.1-0.6,0.2-0.8L195.9,62.3 M189.2,80.1c1-2.3,0.6-2.7,3.3-2.7h9
			c3.2,0,2.8,0,4.1,3.4l2.1,5c0.3,0.8,0.9,2.3,0.9,3.3c0,1.9-2.6,1.9-4.2,1.9c-0.7,0-1.9,0-1.9,1c0,0.6,0.7,0.6,1,0.6
			c2.5,0,5-0.3,7.4-0.3c3,0,5.8,0.3,8.8,0.3c0.3,0,1-0.1,1-0.6c0-1-1.2-1-1.9-1c-3.3,0-4.4-3.9-5.4-6.4l-13.4-33.2
			c-0.2-0.4-0.4-1.2-0.9-1.2c-0.7,0-0.9,0.9-1.1,1.4l-12.8,33.2c-0.5,1.2-1.6,4.3-2.6,5.2c-0.9,0.9-2.1,1-3.4,1
			c-0.6,0-1.8,0-1.8,0.9c0,1.1,1.7,0.7,2.3,0.7c1.8,0,3.7-0.3,5.5-0.3c1.8,0,3.7,0.3,5.6,0.3c0.7,0,1.5,0,1.5-0.8
			c0-0.9-1.1-0.8-1.7-0.8c-1.5,0-4.4-0.2-4.4-2.3c0-1.2,0.5-2.6,0.9-3.7L189.2,80.1z"/>
		<path class="st0" d="M233.3,58c0-4.6,0.1-5.3,5.2-5.3c5.9,0,9.5,3.3,9.5,9.4c0,2.7-0.8,5.1-3.1,6.7c-2.6,1.9-5.2,2.1-8.3,2.1
			c-1.1,0-3.4,0.4-3.4-1.2V58 M228,85.6c0,4.2,0.3,5.5-4.3,5.5c-0.6,0-1.6-0.1-1.6,0.8c0,0.7,0.5,0.8,1.1,0.8c2.6,0,5-0.3,7.6-0.3
			c2.6,0,4.9,0.3,7.5,0.3c0.6,0,1.1-0.1,1.1-0.8c0-0.8-1.1-0.8-1.7-0.8c-4.6-0.1-4.3-1.2-4.3-5.5V75.4c0-0.6-0.1-2.1,0.3-2.7
			c0.3-0.4,0.9-0.3,1.4-0.3c5,0,5,0.5,7.4,5.2l6.5,12.9c0.5,1,0.9,2.2,2.2,2.2h7c0.5,0,1.2-0.1,1.2-0.7c0-0.9-1.2-0.9-1.7-0.9
			c-2.9,0-3.9-2.6-5.1-4.8L247.2,76c-0.9-1.7-1.9-4.1-4-4.4c5.5-0.7,10.4-4.2,10.4-10.2c0-6.9-6.2-10-12.6-10
			c-3.8,0-7.5,0.3-11.3,0.3c-2.1,0-4.4-0.3-6.5-0.3c-0.7,0-1.2,0.3-1.2,1c0,0.8,1,0.8,1.6,0.8c4.6,0,4.3,1.2,4.3,5.5v26.9H228z"/>
		<path class="st0" d="M271.6,58c0-4.6,0.1-5.3,5.2-5.3c5.9,0,9.5,3.3,9.5,9.4c0,2.7-0.8,5.1-3.1,6.7c-2.6,1.9-5.2,2.1-8.3,2.1
			c-1.1,0-3.4,0.4-3.4-1.2V58 M266.3,85.6c0,4.2,0.3,5.5-4.3,5.5c-0.6,0-1.6-0.1-1.6,0.8c0,0.7,0.5,0.8,1.1,0.8c2.6,0,5-0.3,7.6-0.3
			c2.6,0,4.9,0.3,7.5,0.3c0.6,0,1.1-0.1,1.1-0.8c0-0.8-1.1-0.8-1.7-0.8c-4.5-0.1-4.3-1.2-4.3-5.5V75.4c0-0.6-0.1-2.1,0.3-2.7
			c0.3-0.4,0.9-0.3,1.4-0.3c5,0,5,0.5,7.4,5.2l6.4,12.9c0.5,1,0.9,2.2,2.2,2.2h6.9c0.5,0,1.2-0.1,1.2-0.7c0-0.9-1.2-0.9-1.7-0.9
			c-3,0-3.9-2.6-5.1-4.8L285.3,76c-0.9-1.7-1.9-4.1-4-4.4c5.5-0.7,10.4-4.2,10.4-10.2c0-6.9-6.2-10-12.5-10c-3.8,0-7.5,0.3-11.3,0.3
			c-2.1,0-4.4-0.3-6.4-0.3c-0.7,0-1.2,0.3-1.2,1c0,0.8,1,0.8,1.6,0.8c4.6,0,4.3,1.2,4.3,5.5v26.9H266.3z"/>
		<path class="st0" d="M309.9,66.1c0,3.1,0.6,3.1,3.3,3.1c2,0,5.4,0.1,8.1-0.3c1.6-0.2,1.9-2.7,2.2-4.6c0.1-0.4,0.3-1.1,0.9-1.1
			c0.3,0,0.7,0.1,0.7,0.6c-0.1,1.8-0.2,3.9-0.3,5.7c0.2,2.1,0.3,4.1,0.3,6.2c0,1-0.4,1.2-0.7,1.2c-0.6,0-0.8-0.7-0.9-1.1
			c-0.3-1.9-0.8-3.9-2.2-4.2c-2.6-0.6-6-0.6-8.1-0.6c-2.7,0-3.3,0-3.3,2.2v11.5c0,6.1,3,6.1,8.2,6.1c5.7,0,9.3-0.1,11.5-5.9
			c0.2-0.5,0.6-2.2,1.4-2.2c0.5,0,0.7,0.3,0.7,0.7c0,0.5-0.2,1-0.3,1.6l-1,7c-0.1,0.4-0.2,0.4-0.7,0.4h-25.8c-1.3,0-2.8,0.3-4.1,0.3
			c-0.6,0-1.1-0.3-1.1-1c0-0.7,1-0.8,1.7-0.8c4.6,0,4.3-1.3,4.3-5.5V58.5c0-4.1,0.3-5.4-4.3-5.4c-0.7,0-1.7,0-1.7-0.8
			c0-0.6,0.5-1,1.1-1c4.1,0,8.4,0.3,12.5,0.3c5.7,0,11.2-0.3,16.8-0.3c1.2,0,0.9,1.6,0.9,2.5v5.7c0,0.4,0.1,1.4-0.6,1.4
			c-0.6,0-0.8-0.8-1-1.3l-1-1.8c-1-2-1.9-3.3-4.1-3.9c-2.1-0.6-5-0.6-7.2-0.6c-1,0-4,0-5,0.4c-1.2,0.5-1,1.9-1,3.1v9.5"/>
		<path class="st0" d="M371.8,58.6c0-4.2,0.3-5.5-4.4-5.5c-0.6,0-1.6,0-1.6-0.7c0-0.7,0.5-1,1.2-1c1.9,0,3.8,0.3,5.8,0.3
			c1.9,0,3.9-0.3,5.7-0.3c0.6,0,1.1,0.3,1.1,1c0,0.7-1,0.7-1.7,0.7c-4.6,0-4.3,1.4-4.3,5.5v33.6c0,0.3,0.1,1.2-0.4,1.2
			c-0.7,0-1.3-1-1.6-1.6l-27.8-36.1v29.9c0,4.1-0.3,5.5,4.3,5.5c0.6,0,1.6-0.2,1.6,0.7c0,0.7-0.5,1-1.1,1c-1.9,0-3.8-0.3-5.8-0.3
			c-1.8,0-3.8,0.3-5.7,0.3c-0.7,0-1.2-0.3-1.2-1c0-0.8,1.1-0.7,1.7-0.7c4.6,0,4.3-1.4,4.3-5.5v-27c0-4.2,0.3-5.5-4.3-5.5
			c-0.6,0-1.6,0-1.6-0.7c0-1,0.8-1,1.6-1h8.2c1.4,0.3,1.9,1.2,2.8,2.3L371.9,84V58.6"/>
	</g>
	<g>
		<path class="st1" d="M4,131h90.1V4H4V131L4,131z M95.2,132.1H2.9V2.9h92.3V132.1L95.2,132.1z"/>
		<path class="st1" d="M17.3,54.7c0,0.1-0.1,0.2-0.2,0.2c-0.4,0-0.6,0.1-0.7,0.3c-0.1,0.2-0.3,0.6-0.4,1.2l-0.4,2
			c-1,4.8-1.7,8.6-2.1,11.1c0,0.2-0.1,0.3-0.1,0.3c-0.1,0-0.2-0.5-0.4-1.6c-0.5-2-0.8-3.6-1-4.6c-0.2-1.1-0.5-2.8-1-4.9l-0.6-2.9
			c-0.1-0.4-0.2-0.7-0.3-0.8c-0.1-0.1-0.3-0.2-0.5-0.2c-0.3,0-0.4,0-0.5,0c-0.1,0-0.1-0.1-0.1-0.2c0-0.1,0.1-0.2,0.2-0.2h0.1
			c0.1,0,0.4,0,0.8,0c0.4,0,0.6,0,0.8,0c0,0,0.2,0,0.5,0s0.7,0,1.2,0h0.2c0.1,0,0.2,0.1,0.2,0.2c0,0.1-0.1,0.2-0.4,0.2h-0.8
			c-0.2,0-0.3,0.1-0.3,0.3c0,0,0,0.1,0,0.2l0.2,0.6c0,0.1,0.4,2.1,1.2,6c0.1,0.7,0.4,1.9,0.8,3.9c1.4-6.7,2.1-10.2,2.1-10.6
			c0-0.3-0.2-0.5-0.6-0.4h-0.4c-0.1,0-0.1-0.1-0.1-0.2c0-0.2,0.1-0.2,0.4-0.2h0.4c0.2,0,0.4,0.1,0.5,0.1h0.4l0.8-0.1
			C17.2,54.5,17.3,54.6,17.3,54.7"/>
		<path class="st1" d="M20.6,69.3c0,0.1-0.1,0.2-0.1,0.2h-0.1c-0.1,0-0.6-0.1-1.7-0.1c-0.2,0-0.4,0-0.6,0c-0.1,0-0.3,0-0.5,0
			c-0.1,0-0.2-0.1-0.2-0.2c0-0.1,0.1-0.2,0.3-0.2c0.3,0,0.5-0.1,0.6-0.2c0.1-0.1,0.1-0.5,0.1-1.2V56.3c0-0.7,0-1.1-0.1-1.2
			c0-0.1-0.3-0.2-0.7-0.3c-0.2,0-0.2-0.1-0.2-0.1c0-0.1,0-0.2,0.1-0.2h1.7c0.1,0,0.4,0,0.7,0h0.5c0.1,0,0.2,0.1,0.2,0.2
			c0,0.1-0.2,0.2-0.6,0.2c-0.2,0-0.3,0.1-0.4,0.2c0,0.1-0.1,0.4-0.1,0.9v11.4c0,0.8,0,1.2,0.1,1.3c0.1,0.2,0.4,0.2,0.8,0.3
			C20.6,69.1,20.6,69.2,20.6,69.3"/>
		<path class="st1" d="M80.7,69.3c0,0.1,0,0.2-0.1,0.2h-0.1c0,0-0.5-0.1-1.4-0.1c-0.2,0-0.4,0-0.5,0c-0.1,0-0.2,0-0.4,0
			c-0.1,0-0.1-0.1-0.1-0.2c0-0.1,0.1-0.2,0.3-0.2c0.3,0,0.4-0.1,0.5-0.2c0-0.1,0.1-0.5,0.1-1.2V56.3c0-0.7,0-1.1-0.1-1.2
			c0-0.1-0.2-0.2-0.6-0.3c-0.1,0-0.2-0.1-0.2-0.1c0-0.1,0-0.2,0.1-0.2h1.3c0.1,0,0.3,0,0.6,0h0.4c0.1,0,0.2,0.1,0.2,0.2
			c0,0.1-0.2,0.2-0.5,0.2c-0.2,0-0.3,0.1-0.3,0.2c0,0.1-0.1,0.4-0.1,0.9v11.5c0,0.8,0,1.2,0.1,1.3c0.1,0.2,0.3,0.2,0.7,0.3
			C80.7,69.1,80.7,69.2,80.7,69.3"/>
		<path class="st1" d="M84,69.3c0,0.1,0,0.2-0.1,0.2h-0.1c0,0-0.5-0.1-1.4-0.1c-0.2,0-0.4,0-0.5,0c-0.1,0-0.2,0-0.4,0
			c-0.1,0-0.1-0.1-0.1-0.2c0-0.1,0.1-0.2,0.3-0.2c0.3,0,0.4-0.1,0.5-0.2c0-0.1,0.1-0.5,0.1-1.2V56.3c0-0.7,0-1.1-0.1-1.2
			c0-0.1-0.2-0.2-0.6-0.3c-0.1,0-0.2-0.1-0.2-0.1c0-0.1,0-0.2,0.1-0.2h1.4c0.1,0,0.3,0,0.6,0h0.4c0.1,0,0.2,0.1,0.2,0.2
			c0,0.1-0.2,0.2-0.5,0.2c-0.2,0-0.3,0.1-0.3,0.2c0,0.1-0.1,0.4-0.1,0.9v11.5c0,0.8,0,1.2,0.1,1.3c0.1,0.2,0.3,0.2,0.7,0.3
			C84,69.1,84,69.2,84,69.3"/>
		<path class="st1" d="M87.4,69.3c0,0.1,0,0.2-0.1,0.2h-0.1c0,0-0.5-0.1-1.4-0.1c-0.2,0-0.4,0-0.5,0c-0.1,0-0.2,0-0.4,0
			c-0.1,0-0.1-0.1-0.1-0.2c0-0.1,0.1-0.2,0.3-0.2c0.3,0,0.4-0.1,0.5-0.2c0-0.1,0.1-0.5,0.1-1.2V56.3c0-0.7,0-1.1-0.1-1.2
			c0-0.1-0.2-0.2-0.6-0.3c-0.1,0-0.2-0.1-0.2-0.1c0-0.1,0-0.2,0.1-0.2h1.4c0.1,0,0.3,0,0.6,0h0.4c0.1,0,0.2,0.1,0.2,0.2
			c0,0.1-0.2,0.2-0.5,0.2c-0.2,0-0.3,0.1-0.3,0.2c0,0.1-0.1,0.4-0.1,0.9v11.5c0,0.8,0,1.2,0.1,1.3c0.1,0.2,0.3,0.2,0.7,0.3
			C87.4,69.1,87.4,69.2,87.4,69.3"/>
		<path class="st1" d="M48.4,116.3c0,0.1-0.1,0.2-0.3,0.2h-0.8h-0.8h-1.2h-0.5c-0.2,0-0.3-0.1-0.3-0.2c0-0.1,0.1-0.2,0.3-0.2h0.5
			c0.2,0,0.3,0,0.3,0c0.1,0,0.2-0.2,0.2-0.4c0-0.2-0.1-0.7-0.3-1.4l-1.3-4.7l-1.5,4.6c-0.3,0.8-0.4,1.3-0.4,1.4
			c0,0.3,0.1,0.4,0.4,0.5h0.5c0.1,0,0.2,0.1,0.2,0.2c0,0.1-0.1,0.2-0.2,0.2h-1.4h-1c-0.1,0-0.2-0.1-0.2-0.2c0-0.1,0.1-0.2,0.3-0.3
			c0.1,0,0.3-0.1,0.4-0.1c0.1-0.1,0.2-0.1,0.3-0.3c0.1-0.2,0.6-1.6,1.5-4.3c0.3-0.9,0.6-1.8,0.8-2.6l-1.4-4.7
			c-0.3-0.9-0.5-1.5-0.6-1.8c-0.1-0.3-0.2-0.5-0.3-0.5c-0.1,0-0.4-0.1-0.8-0.1c-0.1,0-0.1-0.1-0.1-0.2c0-0.2,0.1-0.2,0.2-0.2
			c0.2,0,0.5,0,1.1,0c0.3,0,0.5,0,0.6,0c0.9,0,1.4,0,1.5-0.1h0.2c0.2,0,0.2,0.1,0.2,0.2c0,0.2-0.1,0.2-0.4,0.2
			c-0.5,0-0.8,0.1-0.8,0.3c0,0.3,0.4,1.9,1.3,5.1c0.3-0.9,0.7-1.9,1.1-3.1c0.4-1.2,0.6-1.8,0.6-2c0-0.2-0.2-0.3-0.7-0.3
			c-0.2,0-0.3-0.1-0.3-0.2c0-0.1,0.1-0.2,0.2-0.2c0.1,0,0.3,0,0.5,0c0.2,0,0.3,0,0.5,0c0,0,0.2,0,0.6,0c0.3,0,0.5,0,0.6,0h0.1
			c0.1,0,0.2,0.1,0.2,0.2c0,0.1-0.1,0.2-0.2,0.2c0,0-0.1,0-0.4,0c-0.3,0-0.5,0.1-0.6,0.3c-0.1,0.2-0.3,0.6-0.5,1.4
			c-0.3,1-0.8,2.3-1.4,4.1l-0.1,0.4c0.1,0.2,0.6,2.1,1.6,5.7c0.3,1.2,0.6,1.9,0.7,2.2c0.1,0.2,0.4,0.3,0.9,0.3
			C48.3,116.1,48.4,116.1,48.4,116.3"/>
		<path class="st1" d="M51.7,116.3c0,0.1,0,0.2-0.1,0.2h-0.1c0,0-0.6-0.1-1.6-0.1c-0.2,0-0.4,0-0.6,0c-0.1,0-0.3,0-0.5,0
			c-0.1,0-0.2-0.1-0.2-0.2c0-0.1,0.1-0.2,0.3-0.2c0.3,0,0.5-0.1,0.6-0.2c0.1-0.1,0.1-0.5,0.1-1.2v-11.4c0-0.7,0-1.1-0.1-1.2
			c-0.1-0.1-0.3-0.2-0.7-0.3c-0.2,0-0.2-0.1-0.2-0.1c0-0.1,0-0.2,0.1-0.2h1.6c0.1,0,0.4,0,0.7,0h0.5c0.1,0,0.2,0.1,0.2,0.2
			c0,0.1-0.2,0.2-0.5,0.2c-0.2,0-0.3,0.1-0.4,0.2c0,0.1-0.1,0.4-0.1,0.9v11.6c0,0.8,0,1.2,0.1,1.3c0.1,0.2,0.3,0.2,0.8,0.3
			C51.7,116.1,51.7,116.1,51.7,116.3"/>
		<path class="st1" d="M55.5,116.3c0,0.1-0.1,0.2-0.1,0.2h-0.1c0,0-0.6-0.1-1.6-0.1c-0.2,0-0.4,0-0.6,0c-0.1,0-0.3,0-0.5,0
			c-0.1,0-0.2-0.1-0.2-0.2c0-0.1,0.1-0.2,0.3-0.2c0.3,0,0.5-0.1,0.6-0.2c0.1-0.1,0.1-0.5,0.1-1.2v-11.4c0-0.7,0-1.1-0.1-1.2
			c0-0.1-0.3-0.2-0.7-0.3c-0.2,0-0.2-0.1-0.2-0.1c0-0.1,0-0.2,0.1-0.2H54c0.1,0,0.3,0,0.7,0h0.5c0.1,0,0.2,0.1,0.2,0.2
			c0,0.1-0.2,0.2-0.5,0.2c-0.2,0-0.3,0.1-0.4,0.2c0,0.1-0.1,0.4-0.1,0.9v11.6c0,0.8,0,1.2,0.1,1.3c0.1,0.2,0.3,0.2,0.8,0.3
			C55.5,116.1,55.5,116.1,55.5,116.3"/>
		<polygon class="st1" points="57.6,65.1 65.7,91.6 64.4,92 56.3,65.4 57.6,65.1 		"/>
		<polygon class="st1" points="65.4,60.6 74.8,74.3 73.7,75 64.3,61.3 65.4,60.6 		"/>
		<polygon class="st1" points="69.7,52.3 75.2,56.6 74.4,57.7 68.8,53.4 69.7,52.3 		"/>
		<polygon class="st1" points="40.2,65.5 41.5,65.9 33.6,92.3 32.4,91.9 40.2,65.5 		"/>
		<polygon class="st1" points="27.9,52.5 28.7,53.6 23.3,57.7 22.5,56.7 27.9,52.5 		"/>
		<polygon class="st1" points="32,60.5 33.1,61.2 23.7,74.6 22.6,73.9 32,60.5 		"/>
		<polygon class="st1" points="48.1,66.8 49.4,66.8 49.4,98.7 48.1,98.7 48.1,66.8 		"/>
		<path class="st1" d="M42.8,52.7L42.8,52.7L42.8,52.7L42.8,52.7 M62,45.4c1.7-0.5,3.1-1.6,4.3-1.9c1.3-0.3,2.9-0.2,2.9-0.2
			s-1.8-1.1-4.2-1.1c-1.2,0-2.2,0.6-4.8-0.1c-0.4-0.1-0.8-0.2-1-0.2c0-0.2-0.1-0.3-0.1-0.5c0.5-0.1,1.4-0.3,2.7-1.2
			c1.4-1.1,2.1-2.7,3.2-3.4c1-0.8,2.4-1.3,2.4-1.3S65.2,35,63,36c-1.1,0.5-1.8,1.4-4.5,1.8c-0.5,0.1-0.8,0.1-1,0.2
			c-0.1-0.1-0.2-0.3-0.3-0.4c0.4-0.2,1.2-0.8,2-2.2c0.9-1.5,1-3.3,1.6-4.4c0.7-1.1,1.8-2.1,1.8-2.1s-2.1,0.5-3.8,2.1
			c-0.8,0.8-1.1,2-3.5,3.4c-0.4,0.2-0.7,0.5-0.9,0.6c-0.1-0.1-0.3-0.2-0.4-0.3c0.3-0.4,0.8-1.2,1-2.9c0.2-1.7-0.3-3.4-0.2-4.7
			c0.2-1.3,0.8-2.7,0.8-2.7s-1.7,1.2-2.7,3.5c-0.4,1.1-0.3,2.3-1.9,4.4c-0.3,0.4-0.5,0.7-0.6,0.9c-0.2,0-0.3,0-0.5-0.1
			c0.1-0.4,0.3-1.4-0.1-3.1c-0.5-1.7-1.6-3.1-1.9-4.3c-0.3-1.3-0.2-2.9-0.2-2.9s-1,2-1,4.4c0,1.2,0.6,2.2-0.1,4.8
			c-0.1,0.5-0.2,0.9-0.2,1.1c-0.2,0-0.3,0.1-0.5,0.1c0-0.4-0.2-1.4-1.3-2.9c-1.1-1.4-2.7-2.1-3.4-3.2c-0.8-1.1-1.3-2.5-1.3-2.5
			s-0.3,2.1,0.7,4.3c0.5,1.1,1.4,1.8,1.8,4.5c0.1,0.6,0.2,1,0.3,1.2c-0.1,0.1-0.3,0.2-0.4,0.3c-0.2-0.3-0.7-1.2-2.2-2.1
			c-1.5-0.9-3.3-1-4.4-1.6c-1.1-0.7-2.1-1.8-2.1-1.8s0.5,2.1,2.1,3.8c0.8,0.8,2,1.1,3.4,3.5c0.3,0.5,0.6,0.9,0.7,1
			c-0.1,0.1-0.2,0.3-0.2,0.4c-0.3-0.2-1.1-0.9-3-1.1c-1.7-0.2-3.4,0.3-4.7,0.2c-1.3-0.2-2.7-0.8-2.7-0.8s1.2,1.7,3.5,2.7
			c1.1,0.4,2.3,0.3,4.4,1.9c0.5,0.4,0.9,0.6,1,0.6c0,0.1-0.1,0.3-0.1,0.4c-0.3-0.1-1.4-0.4-3.2,0.1c-1.7,0.5-3.1,1.6-4.3,1.9
			c-1.3,0.3-2.9,0.2-2.9,0.2s1.8,1.1,4.2,1.1c1.2,0,2.2-0.6,4.8,0.1c0.6,0.2,1,0.2,1.2,0.2c0,0.2,0.1,0.3,0.1,0.4
			c-0.4,0-1.4,0.2-2.9,1.3c-1.4,1.1-2.1,2.7-3.2,3.4c-1,0.8-2.5,1.3-2.5,1.3s2.1,0.4,4.3-0.6c1.1-0.5,1.8-1.4,4.5-1.8
			c0.6-0.1,1-0.2,1.2-0.3c0.1,0.1,0.2,0.3,0.3,0.4c-0.3,0.2-1.2,0.7-2.1,2.2c-0.9,1.5-1,3.3-1.6,4.4c-0.7,1.1-1.8,2.1-1.8,2.1
			s2.1-0.5,3.8-2.1c0.8-0.8,1.1-2,3.5-3.4c0.1,0,0.1-0.1,0.1-0.1L13.6,99.7v14.4l28.1-58.5v0.1c-0.2,1.7,0.3,3.4,0.2,4.7
			c-0.2,1.3-0.8,2.7-0.8,2.7s1.7-1.2,2.7-3.5c0.4-1.1,0.3-2.3,1.9-4.4c0.3-0.4,0.5-0.7,0.6-0.9c0.2,0,0.3,0.1,0.5,0.1
			c-0.1,0.4-0.3,1.4,0.1,3.1c0.5,1.7,1.6,3.1,1.9,4.3c0.3,1.3,0.2,2.9,0.2,2.9s1.1-1.8,1.1-4.2c0-1.2-0.6-2.2,0.1-4.8
			c0.1-0.5,0.2-0.8,0.2-1c0.2,0,0.3-0.1,0.5-0.1c0.1,0.5,0.3,1.4,1.3,2.8c1.1,1.4,2.7,2.1,3.4,3.2c0.8,1.1,1.3,2.5,1.3,2.5
			s0.4-2.1-0.6-4.3c-0.5-1.1-1.4-1.8-1.7-4.5c-0.1-0.5-0.1-0.8-0.2-1c0.1-0.1,0.3-0.2,0.4-0.3c0.2,0.4,0.8,1.2,2.2,2
			c1.5,0.9,3.3,1,4.4,1.6c1.1,0.7,2.1,1.8,2.1,1.8s-0.5-2.1-2.1-3.8c-0.8-0.8-2-1.1-3.4-3.5c-0.2-0.4-0.4-0.6-0.6-0.8
			c0.1-0.1,0.2-0.3,0.3-0.4c0.4,0.3,1.2,0.8,2.8,1c1.7,0.2,3.4-0.3,4.7-0.2c1.3,0.2,2.7,0.8,2.7,0.8s-1.2-1.7-3.5-2.7
			c-1.1-0.4-2.3-0.3-4.4-1.9c-0.3-0.3-0.6-0.4-0.8-0.5c0-0.2,0.1-0.3,0.1-0.5C59.5,45.7,60.5,45.8,62,45.4"/>
	</g>
</g>
</svg>
